PathFileType	4	(X/Y/Z)	./resultDataOpenSim/trcMotMarkerGrf/sub10/qtm-15-04.trc
DataRate	CameraRate	NumFrames	NumMarkers	Units	OrigDataRate	OrigDataStartFrame	OrigNumFrames
250.000000	250.000000	11	24	m	250.000000	376	501
Frame#	Time	L.Toe.Tip			R.Toe.Tip			L.Ankle.Lat			R.Ankle.Lat			L.Ankle.Med			R.Ankle.Med			L.Heel			R.Heel			L.Knee.Lat			R.Knee.Lat			L.Knee.Med			R.Knee.Med			L.Thigh.Upper			R.Thigh.Upper			L.ASIS			R.ASIS			V.Sacral			L.Acromium			R.Acromium			C7			L.Elbow			R.Elbow			L.Wrist.Lat			R.Wrist.Lat
		X1	Y1	Z1	X2	Y2	Z2	X3	Y3	Z3	X4	Y4	Z4	X5	Y5	Z5	X6	Y6	Z6	X7	Y7	Z7	X8	Y8	Z8	X9	Y9	Z9	X10	Y10	Z10	X11	Y11	Z11	X12	Y12	Z12	X13	Y13	Z13	X14	Y14	Z14	X15	Y15	Z15	X16	Y16	Z16	X17	Y17	Z17	X18	Y18	Z18	X19	Y19	Z19	X20	Y20	Z20	X21	Y21	Z21	X22	Y22	Z22	X23	Y23	Z23	X24	Y24	Z24

376	1.5	1.0023913	0.07226611	-0.24602569	0.88704708	0.038275004	-0.022225277	0.89448615	0.15398144	-0.25232461	0.74853403	0.068154717	0.012734515	0.92549681	0.15969143	-0.17170738	0.77251772	0.09025411	-0.072528393	0.82768824	0.14748115	-0.20060808	0.69446204	0.049496675	-0.032730993	1.099048	0.47765567	-0.25533246	0.91253397	0.43685536	0.043679846	1.1236153	0.44467442	-0.13947017	0.91389036	0.44305266	-0.084265578	0.95693037	0.83473031	-0.26518984	0.94402615	0.84833214	0.1175279	1.0058612	0.94507755	-0.19608676	1.0152324	0.94462756	0.044507056	0.8102844	0.95688259	-0.071682844	0.93197723	1.4260741	-0.21452575	0.90101935	1.4119361	0.099654555	0.85197157	1.4447036	-0.067831836	0.79234626	1.1240006	-0.31525015	0.81346397	1.0743433	0.17280206	0.86756881	0.98004825	-0.50419958	0.91644158	0.96448872	0.37151521
377	1.504	1.0199327	0.0709753	-0.24602241	0.88716716	0.038389762	-0.022192768	0.9096219	0.14923889	-0.25268648	0.74873773	0.069170576	0.012694334	0.94014759	0.15573254	-0.17227314	0.77273605	0.091219402	-0.07256278	0.84299632	0.14089245	-0.20099987	0.6947071	0.050793167	-0.032789006	1.1051835	0.47914418	-0.25522926	0.91267821	0.4380772	0.044125841	1.1306834	0.44643082	-0.13938929	0.91462094	0.4440502	-0.08389541	0.96258575	0.83659293	-0.26597481	0.94772921	0.84929774	0.11675492	1.0108806	0.94694897	-0.19619878	1.019134	0.9458899	0.044057833	0.81514972	0.9583209	-0.072890482	0.93607857	1.427154	-0.21503828	0.90582949	1.4129423	0.099332364	0.85646878	1.4457293	-0.068171015	0.79571868	1.1252325	-0.31461446	0.8197371	1.0748995	0.17311198	0.86941698	0.98034399	-0.50347149	0.92716679	0.96557459	0.36995896
378	1.508	1.03749	0.069835973	-0.24596399	0.88730353	0.038481291	-0.022170942	0.92492107	0.14461568	-0.25304773	0.7489313	0.070210383	0.012684244	0.95475779	0.15195587	-0.17269975	0.77305264	0.092201671	-0.072557364	0.8586012	0.13434481	-0.20139658	0.69497083	0.052076186	-0.032866777	1.1112115	0.4805155	-0.25515391	0.91297704	0.43932098	0.044580825	1.137268	0.4481013	-0.13935901	0.91549283	0.44503719	-0.083549071	0.96822319	0.83834459	-0.26675186	0.9513804	0.85023516	0.11602314	1.015923	0.94868514	-0.1962842	1.0229458	0.94711705	0.043678924	0.82021506	0.95973682	-0.073804803	0.94019426	1.4281589	-0.21556538	0.91065526	1.4138769	0.099003027	0.86097138	1.4466869	-0.068520341	0.79910988	1.1264098	-0.3140677	0.82603926	1.0754094	0.17348495	0.87129327	0.98064161	-0.5028314	0.937864	0.96671151	0.36842053
379	1.512	1.0550646	0.068850919	-0.24584469	0.88739844	0.03853337	-0.022161567	0.9403752	0.14012673	-0.25341303	0.74914537	0.071259346	0.01267465	0.96973576	0.14846717	-0.17298576	0.77337437	0.093206494	-0.072538647	0.87444964	0.12781265	-0.2019118	0.69523867	0.053338358	-0.032995814	1.1171674	0.48174346	-0.25511658	0.91335624	0.44055626	0.045021171	1.1435115	0.44966247	-0.13936288	0.91650162	0.44599532	-0.083233027	0.97385016	0.8399867	-0.26751617	0.95495737	0.85114113	0.11533581	1.0209986	0.95029228	-0.19635276	1.0267083	0.94828572	0.043360814	0.82540033	0.96114579	-0.074124935	0.94433385	1.4290836	-0.2161052	0.91548058	1.4147335	0.098663788	0.86548669	1.4475783	-0.068865712	0.80251962	1.1275222	-0.31359044	0.83237916	1.0758538	0.17391115	0.87320806	0.98092642	-0.50227806	0.94853733	0.96789328	0.36690003
380	1.516	1.0726566	0.068020487	-0.24564967	0.88745668	0.038561539	-0.022154441	0.95597877	0.13578553	-0.25377993	0.74939786	0.072292535	0.012639892	0.98536911	0.14533162	-0.17322331	0.77368758	0.094222398	-0.072513156	0.89045895	0.12139659	-0.20255196	0.69547684	0.05458513	-0.033211798	1.1230726	0.48281766	-0.25512142	0.91375907	0.44175139	0.045416051	1.149574	0.4511023	-0.13938374	0.91764363	0.44690828	-0.082961734	0.97947322	0.84151916	-0.26825815	0.95843255	0.85201785	0.11468813	1.026109	0.95177504	-0.19640616	1.03044	0.94938382	0.043093493	0.83039913	0.96258207	-0.074010336	0.94850167	1.4299305	-0.21665092	0.92027985	1.4155084	0.098320258	0.87001239	1.448399	-0.069194161	0.80595524	1.1285606	-0.31316311	0.83876433	1.0762194	0.17438612	0.87516844	0.98119247	-0.50181113	0.95919155	0.96911207	0.36539963
381	1.52	1.0902493	0.067345031	-0.24537027	0.88751923	0.038589812	-0.022133025	0.9717307	0.13160897	-0.25414578	0.74970111	0.073282567	0.012565364	1.0016114	0.14254042	-0.17352555	0.77410035	0.095196521	-0.072455255	0.90655347	0.11525911	-0.2032438	0.69564524	0.055823018	-0.033513121	1.1289239	0.48374703	-0.25516292	0.9141657	0.44287228	0.045754045	1.1555368	0.45242883	-0.13941554	0.91892796	0.44776356	-0.082731215	0.98509285	0.84293973	-0.26897585	0.96178212	0.85287233	0.11407464	1.0312252	0.95312804	-0.19644683	1.0341454	0.95040659	0.042870565	0.83487469	0.96405068	-0.074086623	0.95269394	1.430708	-0.21719751	0.92504818	1.4162141	0.097983249	0.87454107	1.449156	-0.069501915	0.80942351	1.1295212	-0.31278134	0.84523382	1.0765045	0.17491959	0.87716843	0.98144696	-0.50143082	0.96982778	0.97036396	0.36391516
382	1.524	1.107819	0.066819532	-0.24501249	0.88760741	0.038627881	-0.02209236	0.98761022	0.12762408	-0.25451297	0.75006801	0.074213925	0.012443306	1.0181082	0.1399956	-0.17395398	0.77468177	0.096083171	-0.072349694	0.9227222	0.10948593	-0.2039164	0.69574656	0.057051082	-0.033806918	1.1347051	0.48455087	-0.25522973	0.91457939	0.44391497	0.04604398	1.161436	0.45365494	-0.13946218	0.92036386	0.44855445	-0.082504559	0.99070381	0.84424606	-0.26967522	0.96499647	0.85370166	0.11349256	1.0363044	0.95434393	-0.19647727	1.0378252	0.95135102	0.04269048	0.83890544	0.96544055	-0.074849267	0.95690558	1.4314194	-0.2177435	0.92982007	1.4168673	0.097658714	0.87906911	1.4498605	-0.069791565	0.81292568	1.1304125	-0.31245716	0.85189142	1.0767165	0.17554113	0.87918931	0.9816998	-0.50113289	0.98044724	0.97164993	0.36243733
383	1.528	1.1253516	0.066423283	-0.24458937	0.88770238	0.038665882	-0.022049737	1.0035742	0.12385705	-0.25488467	0.75047095	0.075105775	0.012306646	1.0344558	0.13757217	-0.17446434	0.77532422	0.09690212	-0.072229511	0.93901978	0.10405769	-0.2045312	0.69583975	0.05825934	-0.033969832	1.1404137	0.48523413	-0.25531232	0.91501047	0.44490449	0.046299039	1.1672775	0.45478229	-0.13952704	0.9219222	0.44927934	-0.082237966	0.99629844	0.84543669	-0.27036338	0.96808444	0.85449718	0.11294319	1.0413348	0.95542529	-0.19648812	1.0414839	0.95221209	0.042550213	0.8429839	0.96656084	-0.076286119	0.961141	1.4320595	-0.2182866	0.93467459	1.41745	0.097319718	0.88359961	1.4505031	-0.070072163	0.81646291	1.1312466	-0.31220205	0.85884737	1.0768738	0.17628134	0.8812159	0.98194894	-0.50090963	0.99105242	0.97296898	0.3609594
384	1.532	1.1428412	0.066124593	-0.24411275	0.88776964	0.038688068	-0.022030034	1.0195964	0.12030908	-0.25526585	0.75084193	0.076002767	0.012224149	1.0504557	0.13520213	-0.17495983	0.77587599	0.097701229	-0.072137103	0.95548976	0.09893144	-0.20507952	0.6959846	0.059435609	-0.033981355	1.1460697	0.48578169	-0.25541372	0.91546866	0.44585471	0.046524949	1.1730406	0.45580095	-0.13960584	0.92352424	0.44993533	-0.081908796	1.0018686	0.84650969	-0.27104271	0.97105975	0.85525554	0.11242715	1.0463335	0.9563875	-0.19647221	1.0451274	0.95298114	0.042444125	0.84744774	0.96731306	-0.078088199	0.96541054	1.4326215	-0.21882401	0.93975286	1.4178979	0.09689023	0.88813937	1.4510627	-0.070358154	0.82003846	1.1320253	-0.31201377	0.86603515	1.0770041	0.17710866	0.88324792	0.98217905	-0.50075516	1.0016439	0.97431444	0.3594773
385	1.536	1.1602804	0.065900451	-0.24359411	0.88779466	0.038689843	-0.022041259	1.0356881	0.11695908	-0.25566341	0.7511455	0.076921374	0.012222299	1.0661518	0.13289991	-0.17539285	0.77630637	0.098497121	-0.072079074	0.97208679	0.094096801	-0.20561351	0.69619544	0.060573419	-0.033929945	1.1516949	0.48618511	-0.25555012	0.91595767	0.44674968	0.046720842	1.1787029	0.45670302	-0.13969047	0.92509145	0.45051149	-0.081516267	1.0074109	0.84746241	-0.27170859	0.97392456	0.85597302	0.11193457	1.0513214	0.95724827	-0.19643963	1.0487564	0.95364648	0.042370444	0.85219499	0.96776589	-0.079981248	0.96971606	1.4331023	-0.21935861	0.94519296	1.4181556	0.096297261	0.89269244	1.4515335	-0.07066388	0.82365335	1.1327415	-0.3118825	0.87314817	1.0771248	0.17790764	0.88529624	0.9823747	-0.50066564	1.0122213	0.9756771	0.35798518
386	1.54	1.1776592	0.065745053	-0.24304681	0.8877843	0.038678137	-0.022074386	1.0518667	0.1137964	-0.25607753	0.75142042	0.077822322	0.012243576	1.0817078	0.1307269	-0.1757828	0.77667301	0.09927978	-0.072039635	0.98869093	0.08957451	-0.20624887	0.69645228	0.061671759	-0.033903849	1.1572975	0.48645907	-0.25573875	0.91647522	0.44757186	0.046888397	1.1842668	0.45749218	-0.13977558	0.92659132	0.45099218	-0.081093256	1.0129358	0.84829516	-0.272357	0.97667437	0.85664438	0.1114483	1.0563307	0.95801045	-0.19639836	1.0523689	0.95419994	0.042329339	0.8569545	0.96806581	-0.081851632	0.97404935	1.4335033	-0.21989985	0.95092481	1.4182514	0.095573235	0.89725688	1.451924	-0.07099597	0.82730251	1.1333921	-0.31180065	0.87989022	1.0772162	0.17857766	0.88737649	0.98253068	-0.50063552	1.0227861	0.977049	0.35647566
